<svg width="16" height="20" viewBox="0 0 16 20" fill="none" xmlns="http://www.w3.org/2000/svg">
    <path d="M7.57248 0.569505C7.48173 0.580755 7.04298 0.631755 6.60498 0.683505C5.42748 0.820004 4.41423 1.156 3.67998 1.65625C3.44073 1.82125 3.42948 1.82725 3.25323 1.73575C2.99748 1.60525 2.32023 1.582 1.98423 1.696C1.51773 1.84975 1.21023 2.197 1.11948 2.67475C1.05123 3.03325 1.12548 3.454 1.31298 3.733C1.42698 3.904 1.84173 4.2055 2.09223 4.30225C2.10948 4.3135 2.07498 4.66675 2.01273 5.0875C1.91598 5.73025 1.90473 6.043 1.92723 6.99325C1.94448 7.6195 1.99548 8.37625 2.04123 8.67175C2.09223 8.968 2.14923 9.406 2.16648 9.6445L2.20623 10.0773L1.96173 10.117C1.57473 10.174 0.982977 10.4928 0.920727 10.669C0.846477 10.8798 0.914727 11.0785 1.13673 11.3178C1.36398 11.557 1.50048 11.551 1.88223 11.2953L2.10948 11.1415V13.759C2.10948 16.3593 2.10948 16.3878 2.24073 16.7005C2.41173 17.1273 2.76423 17.662 3.10548 18.0318L3.38973 18.328L3.10548 18.5103C2.79273 18.715 2.53623 19.0848 2.53623 19.3413C2.53623 19.4493 2.59848 19.5573 2.74098 19.6885C2.91198 19.8535 2.98548 19.882 3.21873 19.882C3.46923 19.882 3.53148 19.8535 3.79923 19.6263C3.96423 19.4838 4.20873 19.3135 4.33998 19.2453L4.58448 19.12L5.10798 19.2963C5.99523 19.5978 6.53598 19.6773 7.68573 19.672C9.14223 19.666 10.349 19.456 11.2362 19.0518C11.4012 18.9775 11.5835 18.9153 11.6285 18.9153C11.6795 18.9153 11.9187 19.126 12.1632 19.3758C12.6012 19.837 12.6072 19.8423 12.8405 19.8085C13.1765 19.7628 13.4037 19.5295 13.4037 19.2393C13.4037 18.9265 13.2672 18.67 12.9372 18.3745L12.6582 18.124L12.9252 17.7655C13.4315 17.077 13.7217 16.3203 13.9212 15.1705C14.0352 14.482 14.0577 13.1673 13.9842 11.6995C13.9617 11.3185 13.9497 11.005 13.9497 11.005C13.9557 11.005 14.075 11.0673 14.2055 11.1475C14.5355 11.335 14.735 11.3298 14.9165 11.1363C15.0815 10.96 15.1272 10.8123 15.0987 10.5445C15.0762 10.3 14.8542 10.1463 14.3307 10.0038C14.12 9.95275 13.9325 9.89575 13.9152 9.8785C13.898 9.86725 13.8695 8.84275 13.847 7.60225C13.8072 5.281 13.8072 5.2465 13.5342 4.07425C13.517 4 13.5282 3.949 13.574 3.949C13.7165 3.949 14.1485 3.5905 14.2797 3.36325C14.5587 2.89675 14.5242 2.299 14.1942 1.84375C13.853 1.37125 13.1135 1.20625 12.413 1.4395L12.0545 1.55875L11.7642 1.37125C11.36 1.09825 10.6775 0.825254 10.0745 0.694004C9.57948 0.586004 7.99173 0.506504 7.57098 0.568754L7.57248 0.569505ZM9.76848 0.848505C11.6405 1.1725 12.6477 2.04925 13.2395 3.853C13.592 4.9285 13.6377 5.401 13.6887 8.473C13.7172 10.0038 13.7682 11.7843 13.8027 12.4278C13.8372 13.0713 13.8485 13.8505 13.8312 14.1633C13.757 15.2958 13.5072 16.3428 13.1427 17.0365C12.8982 17.503 12.4257 18.0948 12.2547 18.1458C12.1805 18.1683 12.0215 18.2823 11.8962 18.4015C11.2422 19.0218 9.82473 19.4028 7.96998 19.4658C6.83748 19.5003 6.17223 19.42 5.29023 19.141C4.79523 18.982 4.69848 18.925 4.47123 18.6918C4.18698 18.3903 3.92523 18.2305 3.70848 18.2305C3.42423 18.2305 2.66148 17.2405 2.42223 16.5693C2.25123 16.0855 2.22273 14.8735 2.30823 12.1143L2.38248 9.7015L2.24598 8.632C1.88748 5.821 2.23998 3.63625 3.27048 2.356C3.72573 1.79275 4.43148 1.38325 5.45523 1.093C6.46248 0.808755 8.78373 0.672255 9.76848 0.848505ZM13.6947 1.67875C14.4117 2.04325 14.4455 3.175 13.7577 3.61375C13.6152 3.7045 13.4847 3.77875 13.4675 3.77875C13.445 3.77875 13.3767 3.61975 13.3085 3.4315L13.178 3.079L13.3257 2.908C13.4337 2.78275 13.4622 2.69725 13.4337 2.58925C13.3655 2.31625 13.2117 2.23675 12.893 2.31025C12.7737 2.33875 12.7167 2.299 12.506 2.03125C12.3695 1.86025 12.2667 1.7125 12.2787 1.69525C12.29 1.684 12.4437 1.63825 12.6147 1.58725C12.9845 1.4845 13.3887 1.519 13.6955 1.678L13.6947 1.67875ZM2.92923 1.84975C3.08823 1.88425 3.23073 1.93525 3.24798 1.95775C3.26523 1.98625 3.16848 2.15125 3.03723 2.32225C2.80398 2.62375 2.78148 2.635 2.58798 2.6065C2.41173 2.578 2.36598 2.59525 2.26398 2.72575C2.10498 2.9305 2.10498 3.04975 2.27523 3.24325L2.40648 3.40225L2.29848 3.73225C2.23623 3.9145 2.15598 4.06225 2.12223 4.06225C2.00823 4.06225 1.64448 3.81775 1.52448 3.664C1.04073 3.0265 1.35348 2.07625 2.12223 1.86625C2.46948 1.7755 2.57748 1.7695 2.92998 1.849L2.92923 1.84975ZM14.5085 10.1688C14.9007 10.3165 15.089 10.5213 15.032 10.7433L14.9975 10.8858L14.804 10.7718C14.69 10.7035 14.5932 10.681 14.5767 10.7148C14.5542 10.7433 14.588 10.783 14.651 10.8055C14.8332 10.8625 14.9127 10.9878 14.8272 11.0898C14.7132 11.2263 14.4687 11.1925 14.1845 10.999L13.9167 10.8228V10.4305C13.9167 10.0608 13.9227 10.0383 14.0472 10.0435C14.1155 10.0435 14.3262 10.1005 14.5077 10.1688H14.5085ZM2.19498 10.39C2.19498 10.8505 2.13273 11.0043 1.88223 11.1753C1.53498 11.4145 1.38123 11.443 1.22223 11.2833C1.10298 11.164 1.09698 11.152 1.19373 11.0958C1.42698 10.9533 1.47273 10.9083 1.41573 10.8738C1.38198 10.8513 1.29048 10.891 1.20498 10.9533C1.07973 11.05 1.05123 11.056 1.02273 10.9818C0.919977 10.714 1.11948 10.4928 1.63173 10.3158C2.09823 10.1568 2.19498 10.168 2.19498 10.39ZM12.8187 18.3963C13.1202 18.6183 13.382 19.1245 13.3077 19.3465C13.2282 19.5858 13.16 19.5625 13.0062 19.2385C12.9267 19.0795 12.8352 18.937 12.8015 18.931C12.767 18.9198 12.8127 19.0615 12.9095 19.2498C13.0002 19.4373 13.0572 19.6135 13.0347 19.648C13.0175 19.6825 12.9155 19.7103 12.8075 19.7103C12.6485 19.7103 12.5682 19.6533 12.2667 19.312C12.0792 19.096 11.8685 18.9025 11.8062 18.8853C11.6352 18.8283 11.675 18.7203 11.954 18.4645C12.2727 18.1743 12.4887 18.157 12.8187 18.3963ZM4.00998 18.43C4.10073 18.4758 4.26573 18.6235 4.37973 18.754L4.59048 18.9933L4.36848 19.096C4.24923 19.153 3.99873 19.3293 3.81123 19.4883C3.43023 19.8123 3.28773 19.864 3.04848 19.7673C2.90073 19.705 2.88948 19.6878 2.94048 19.5513C2.97498 19.4658 3.06573 19.312 3.14523 19.21C3.22473 19.108 3.27648 19.0053 3.25923 18.988C3.21348 18.9483 2.95173 19.2498 2.87223 19.4373C2.79273 19.6368 2.71848 19.642 2.67273 19.4545C2.59323 19.1305 2.82048 18.7885 3.29898 18.5155C3.62298 18.328 3.77673 18.3048 4.00998 18.43ZM9.63198 1.5595C9.05748 1.70725 8.55648 2.1175 8.32323 2.635C8.14698 3.016 8.15823 3.6535 8.34048 4.0345C8.53398 4.43275 8.94948 4.82575 9.34773 4.9735C9.79173 5.1385 10.52 5.116 10.901 4.9225C11.5325 4.5985 11.8227 4.1545 11.8565 3.42625C11.879 2.9935 11.8625 2.90275 11.7425 2.62975C11.5437 2.197 11.2872 1.93 10.883 1.7305C10.4907 1.543 9.98973 1.47475 9.63123 1.5595H9.63198ZM10.7472 1.7755C11.7087 2.20225 12.0732 3.38575 11.5212 4.26175C10.9977 5.08675 9.64923 5.2405 8.88123 4.56325C8.22123 3.98275 8.10723 3.10075 8.59698 2.38375C9.06348 1.70125 9.99123 1.4395 10.748 1.77475L10.7472 1.7755ZM8.67048 3.03325C8.20998 3.44275 8.65923 4.171 9.27348 4.00075C9.50073 3.9385 9.70548 3.67675 9.70548 3.44875C9.70548 2.93125 9.06798 2.67475 8.66973 3.03325H8.67048ZM4.98348 1.7815C4.52823 1.924 4.07898 2.299 3.85698 2.7205C3.72573 2.965 3.70323 3.08425 3.70323 3.4945C3.70323 3.89275 3.72573 4.02925 3.83973 4.25725C4.38048 5.35525 5.84223 5.63425 6.74748 4.8205C7.18548 4.42825 7.34523 4.08625 7.34523 3.523C7.34523 3.136 7.32273 3.01675 7.18623 2.74375C6.87348 2.10625 6.24198 1.72525 5.50773 1.7365C5.29698 1.7365 5.06373 1.759 4.98423 1.78225L4.98348 1.7815ZM6.36048 2.032C7.60623 2.76025 7.53798 4.41025 6.23523 5.04775C5.83698 5.24125 5.17698 5.224 4.74423 5.01325C3.45273 4.37575 3.46998 2.6005 4.77873 1.975C5.03448 1.85575 5.13123 1.8385 5.58123 1.85575C6.01923 1.873 6.13848 1.9015 6.36048 2.032ZM4.38573 3.022C4.21473 3.06175 3.97623 3.31225 3.94173 3.48325C3.90198 3.68275 4.02123 3.967 4.19223 4.08625C4.26648 4.13725 4.43148 4.177 4.56198 4.177C5.22198 4.177 5.38698 3.3175 4.77798 3.06175C4.57923 2.97625 4.57323 2.97625 4.38498 3.022H4.38573ZM7.58898 4.56925C7.29273 4.6315 7.08798 4.78 7.04823 4.97875C7.03098 5.08675 6.95748 5.17825 6.86073 5.22925C6.50223 5.41675 6.31473 5.815 6.43998 6.13975C6.49098 6.259 6.75873 6.3955 6.96348 6.3955H7.12848L7.07748 6.69175C7.01523 7.0675 7.06023 7.3345 7.20873 7.483C7.35723 7.6315 7.56123 7.6195 7.74948 7.4545L7.90848 7.32325L8.00523 7.43725C8.12448 7.591 8.47173 7.591 8.63673 7.43725C8.73948 7.3465 8.75073 7.2835 8.72748 6.86275L8.70498 6.39625H8.88123C9.52998 6.39625 9.51873 5.54875 8.86398 5.23C8.70498 5.15575 8.62473 5.08225 8.62473 5.00275C8.61873 4.83775 8.49948 4.70125 8.26623 4.6045C8.04423 4.51375 7.92498 4.50775 7.58898 4.57V4.56925ZM8.78973 5.31475C9.09723 5.4685 9.25023 5.67925 9.25023 5.95225C9.25023 6.15175 9.22773 6.1855 9.06273 6.25375C8.86323 6.33925 8.61873 6.30475 8.15223 6.13975C7.89648 6.049 7.86798 6.049 7.49223 6.16225C6.81498 6.367 6.51948 6.2875 6.50823 5.9005C6.50223 5.67325 6.59898 5.5195 6.83823 5.36575C7.03773 5.2465 7.04898 5.2465 7.24773 5.34325C7.36173 5.39425 7.58373 5.45125 7.74273 5.4685C7.97598 5.491 8.07273 5.4685 8.28348 5.3545C8.42598 5.275 8.54523 5.20675 8.55648 5.20675C8.56248 5.20075 8.67048 5.2525 8.78973 5.31475ZM7.85073 6.69175C7.80498 7.29475 7.76523 7.40275 7.57173 7.4545C7.23048 7.54 7.10523 7.30675 7.17873 6.75475L7.22973 6.36775L7.51398 6.271C7.67298 6.22 7.81548 6.17425 7.83798 6.16825C7.86048 6.16825 7.86648 6.4075 7.84923 6.69175H7.85073ZM8.28948 6.2875C8.57373 6.38425 8.62548 6.481 8.62548 6.919C8.62548 7.26025 8.60823 7.31125 8.48898 7.3915C8.29548 7.51675 8.06223 7.4485 8.02248 7.255C8.00523 7.1755 7.97673 7.0675 7.96548 7.02175C7.92573 6.90775 8.00523 6.22525 8.05623 6.22525C8.07873 6.22525 8.18148 6.25375 8.28948 6.2875Z" fill="#0D98BA"/>
    </svg>
    