<svg width="24" height="24" viewBox="0 0 24 24" fill="none" xmlns="http://www.w3.org/2000/svg">
    <path d="M0.287994 0.502502V23.9745H23.76V0.502502H0.287994ZM12.5385 20.5815C12.1927 21.2843 11.532 21.7463 10.767 21.969C9.59099 22.239 8.46674 22.0853 7.62974 21.5828C7.06949 21.2393 6.63224 20.7105 6.33599 20.1015C6.93149 19.7378 7.52549 19.3718 8.12099 19.008C8.13674 19.0148 8.18324 19.0995 8.24624 19.209C8.47349 19.5908 8.66999 19.8608 9.05624 20.0498C9.43574 20.1788 10.2675 20.262 10.5892 19.5945C10.7857 19.2555 10.7227 18.1425 10.7227 16.9358C10.7227 15.039 10.7317 13.1738 10.7317 11.2538H12.927C12.927 13.2698 12.9382 15.291 12.927 17.304C12.9315 18.5378 13.0387 19.6598 12.5385 20.5815ZM21.6465 19.9613C20.8837 22.572 16.6282 22.6568 14.9287 20.9318C14.5695 20.526 14.3445 20.3138 14.13 19.845C15.0337 19.3253 15.0337 19.3253 15.9127 18.8168C16.3905 19.551 16.8322 19.9545 17.6265 20.1195C18.7042 20.2508 19.7887 19.881 19.5457 18.7365C19.296 17.8013 17.3392 17.574 16.0072 16.5743C14.655 15.666 14.3385 13.4595 15.4492 12.1988C15.8197 11.7323 16.4512 11.3843 17.1135 11.217C17.343 11.1878 17.5755 11.157 17.805 11.1278C19.1325 11.1008 19.9627 11.451 20.5717 12.132C20.7412 12.3038 20.8792 12.489 21.1387 12.891C20.4315 13.3418 20.4337 13.3373 19.4205 13.9935C19.2037 13.527 18.8452 13.2345 18.4657 13.1078C17.877 12.9293 17.1337 13.1235 16.98 13.746C16.9267 13.938 16.938 14.1165 17.0227 14.433C17.2612 14.9775 18.0622 15.2138 18.7807 15.5438C20.8492 16.383 21.5475 17.2815 21.7192 18.3525C21.8842 19.2743 21.6787 19.872 21.648 19.9613H21.6465Z" fill="black"/>
    </svg>
    