<svg width="23" height="21" viewBox="0 0 23 21" fill="none" xmlns="http://www.w3.org/2000/svg">
    <path d="M20.1285 7.18738H13.8185L14.7685 2.61738L14.7985 2.29738C14.7985 1.88738 14.6285 1.50738 14.3585 1.23738L13.2985 0.187378L6.71848 6.77738C6.34848 7.13738 6.12848 7.63738 6.12848 8.18738V18.1874C6.12848 19.2874 7.02848 20.1874 8.12848 20.1874H17.1285C17.9585 20.1874 18.6685 19.6874 18.9685 18.9674L21.9885 11.9174C22.0785 11.6874 22.1285 11.4474 22.1285 11.1874V9.18738C22.1285 8.08738 21.2285 7.18738 20.1285 7.18738ZM20.1285 11.1874L17.1285 18.1874H8.12848V8.18738L12.4685 3.84738L11.3585 9.18738H20.1285V11.1874ZM0.128479 8.18738H4.12848V20.1874H0.128479V8.18738Z" fill="black"/>
    </svg>
    