<svg width="18" height="18" viewBox="0 0 18 18" fill="none" xmlns="http://www.w3.org/2000/svg">
    <path d="M17.0558 10.9958C16.8758 10.7873 16.5683 10.8443 16.3305 10.8915C15.759 10.9935 15.1373 11.112 14.5838 10.8743C15.5723 9.31425 16.35 7.611 16.785 5.81325C16.9433 5.13 17.0655 4.431 17.0423 3.7275C17.025 3.33375 16.9703 2.9145 16.7295 2.58825C16.134 1.803 15.2708 1.23075 14.319 0.975002C13.1303 0.652502 11.8553 0.748502 10.686 1.11C10.5893 1.1295 10.494 1.086 10.3995 1.074C9.33825 0.858752 8.16825 0.943502 7.248 1.55775C6.14325 1.16025 4.956 0.920252 3.78 1.04325C2.9055 1.134 2.02725 1.5405 1.5255 2.28525C0.891002 3.2145 0.804753 4.401 0.906003 5.49C1.11 6.936 1.4625 8.3595 1.911 9.74775C2.2065 10.6133 2.532 11.4855 3.05775 12.2415C3.32475 12.6128 3.6795 12.987 4.15725 13.0455C4.58175 13.0973 4.96575 12.834 5.226 12.522C5.676 11.9835 6.13875 11.4548 6.61875 10.9433C6.93225 11.097 7.27275 11.1855 7.62075 11.2118C7.4325 11.4353 7.27725 11.727 6.97725 11.8148C6.573 11.9708 6.09975 11.9498 5.7435 12.219C5.538 12.366 5.52825 12.6863 5.71275 12.855C6.0465 13.179 6.5385 13.2488 6.9825 13.2863C7.61175 13.3343 8.24775 13.1228 8.7255 12.7103C8.7225 13.7108 8.727 14.7143 8.8395 15.7095C8.89575 16.2923 9.147 16.8728 9.59025 17.265C10.008 17.6295 10.6035 17.7053 11.1338 17.613C11.6543 17.514 12.189 17.358 12.5955 17.0025C13.0275 16.6215 13.212 16.0463 13.2975 15.4943C13.4528 14.505 13.5705 13.5113 13.683 12.5175C14.7953 12.705 16.0538 12.492 16.8848 11.6798C17.0625 11.5125 17.2313 11.223 17.0558 10.9958ZM14.5875 1.58775C15.255 1.84125 15.8483 2.2815 16.2938 2.83875C16.506 3.105 16.533 3.46275 16.5465 3.78975C16.5563 4.56975 16.3988 5.34 16.1985 6.09C15.8153 7.47825 15.2333 8.80875 14.502 10.0478C14.43 10.17 14.3513 10.2878 14.2643 10.3995C14.2575 10.3658 14.244 10.2968 14.2373 10.2623C14.328 10.0238 14.4608 9.79875 14.5125 9.54525C14.6955 8.8305 14.541 8.09475 14.475 7.3755C14.406 6.69675 14.6378 6.036 14.6318 5.35875C14.658 5.02725 14.5268 4.71375 14.3993 4.416C13.938 3.38475 13.2045 2.4675 12.2633 1.8375C12.0338 1.68 11.7773 1.56975 11.5485 1.4115C12.549 1.197 13.6223 1.224 14.5868 1.587L14.5875 1.58775ZM13.9778 7.377C14.0363 8.18025 14.2695 9.04275 13.8908 9.80475C13.383 8.7945 12.7268 7.83 12.498 6.705C12.4335 6.34725 12.417 5.89425 12.735 5.64525C13.1385 5.35875 13.6658 5.42325 14.1323 5.45175C14.112 6.096 13.914 6.72825 13.9785 7.377H13.9778ZM4.9005 12.1358C4.71825 12.3503 4.47225 12.606 4.16175 12.5423C3.79875 12.4373 3.56775 12.1058 3.36525 11.808C2.8185 10.9335 2.48925 9.94575 2.187 8.9655C1.84875 7.80525 1.56375 6.62625 1.3995 5.42775C1.31775 4.51575 1.36875 3.53775 1.83525 2.7255C2.18475 2.1105 2.8365 1.71825 3.52125 1.59C4.61775 1.37925 5.742 1.60275 6.79425 1.92375C6.33 2.43375 5.9685 3.0345 5.75775 3.69225C5.4705 4.5705 5.33925 5.505 5.40825 6.42825C5.448 7.0785 5.43075 7.73175 5.34 8.37675C5.226 9.219 5.56425 10.0853 6.18975 10.6538C5.76375 11.1518 5.31225 11.6265 4.89975 12.1365L4.9005 12.1358ZM5.8605 9.1185C5.75325 8.6415 5.8935 8.1615 5.90925 7.68375C5.946 7.143 5.90775 6.6015 5.89725 6.06075C6.40275 5.73375 6.99375 5.478 7.6065 5.51325C7.92375 5.52675 8.21625 5.751 8.29275 6.06375C8.571 7.1715 8.65725 8.4045 8.124 9.45375C7.938 9.85875 7.78725 10.278 7.6575 10.7033C6.771 10.7123 6.01725 9.963 5.8605 9.11925V9.1185ZM8.619 12.084C8.0625 12.8378 6.94875 12.9818 6.144 12.5715C6.54075 12.3878 7.005 12.402 7.38825 12.1755C7.75875 11.976 7.90575 11.5373 8.25225 11.3115C8.6295 11.2583 8.90475 11.8185 8.61975 12.0833L8.619 12.084ZM13.392 11.2035C13.1805 11.544 13.2548 11.9595 13.203 12.3375C13.0815 13.3973 12.9623 14.4585 12.7898 15.5115C12.708 16.0163 12.4935 16.5525 12.0173 16.8038C11.529 17.052 10.962 17.208 10.413 17.1233C9.89175 17.0318 9.56325 16.5458 9.4155 16.0725C9.3075 15.6758 9.29625 15.261 9.2655 14.8523C9.213 13.866 9.21225 12.8775 9.23775 11.8905C9.2595 11.505 9.0615 11.1038 8.71725 10.9163C8.55075 10.8225 8.35575 10.8098 8.16975 10.7948C8.316 10.0695 8.75775 9.44325 8.90925 8.71875C9.10575 7.8225 8.997 6.8895 8.796 6.0045C8.69775 5.56275 8.36175 5.172 7.91475 5.06475C7.22625 4.8915 6.53175 5.16075 5.916 5.44875C5.994 4.44825 6.26175 3.42375 6.8745 2.6115C7.32525 2.007 8.02425 1.6035 8.7705 1.50675C10.002 1.35 11.295 1.689 12.2738 2.45925C13.0823 3.09825 13.7213 3.96375 14.0655 4.93725C13.4933 4.917 12.8445 4.89375 12.3818 5.29125C11.9618 5.64525 11.9078 6.249 12.0023 6.756C12.2213 7.962 12.933 8.98725 13.458 10.0718C13.5975 10.326 13.785 10.548 13.9635 10.776C13.7513 10.8833 13.5143 10.986 13.3935 11.2043L13.392 11.2035ZM14.865 12.0563C14.487 12.1013 14.094 12.1148 13.7295 11.9895C13.731 11.7833 13.7198 11.5388 13.8855 11.385C14.0168 11.2883 14.2035 11.199 14.355 11.3048C15 11.6445 15.75 11.4788 16.4363 11.3955C16.017 11.8035 15.4365 11.994 14.865 12.0563ZM12.8835 5.796C12.7493 5.90625 12.894 6.07125 13.0095 6.123C13.2893 6.28725 13.6725 6.05775 13.6815 5.73825C13.4288 5.6205 13.1115 5.6325 12.8828 5.796H12.8835ZM7.932 6.306C8.05125 6.2385 8.17725 6.05325 8.03925 5.9415C7.84275 5.78175 7.557 5.751 7.31775 5.8155C7.2405 5.8425 7.1595 5.895 7.17525 5.9895C7.23075 6.3105 7.6605 6.5055 7.93125 6.306H7.932Z" fill="#306998"/>
    </svg>
    