<svg width="17" height="20" viewBox="0 0 17 20" fill="none" xmlns="http://www.w3.org/2000/svg">
    <path d="M6.52197 9.35561H10.5368C11.6544 9.35561 12.5467 8.29629 12.5467 7.0031V2.59514C12.5467 1.34035 11.6277 0.397985 10.5368 0.188854C9.84601 0.0565473 9.13007 -0.00405762 8.44302 0.000210349C7.75598 0.00447832 7.09933 0.0710585 6.52197 0.188854C4.82104 0.53456 4.51199 1.25926 4.51199 2.59514V4.35952H8.53122V4.94764H3.00301C1.83497 4.94764 0.812186 5.756 0.492011 7.29503C0.12292 9.05855 0.106615 10.1588 0.492011 12C0.777352 13.3709 1.45995 14.3474 2.62799 14.3474H4.01023V12.2322C4.01023 10.7043 5.15827 9.35646 6.52123 9.35646L6.52197 9.35561ZM6.2685 3.18326C5.85198 3.18326 5.51401 2.78976 5.51401 2.30406C5.51401 1.81581 5.85124 1.41888 6.2685 1.41888C6.68354 1.41888 7.02299 1.81581 7.02299 2.30406C7.02299 2.79061 6.68428 3.18326 6.2685 3.18326ZM16.5652 7.29418C16.2769 5.95489 15.7255 4.94679 14.5553 4.94679H13.047V7.00225C13.047 8.59591 11.8738 9.93776 10.536 9.93776H6.52123C5.42137 9.93776 4.51125 11.0218 4.51125 12.2903V16.6982C4.51125 17.953 5.45843 18.6905 6.52123 19.0507C7.79378 19.4818 9.01371 19.5595 10.536 19.0507C11.5477 18.7136 12.546 18.0341 12.546 16.6982V14.9338H8.53122V14.3457H14.556C15.724 14.3457 16.1591 13.4076 16.566 11.9983C16.9855 10.5481 16.9677 9.15416 16.566 7.29332L16.5652 7.29418ZM10.7895 16.111C11.206 16.111 11.544 16.5045 11.544 16.9902C11.544 17.4784 11.206 17.8753 10.7895 17.8753C10.3745 17.8753 10.035 17.4784 10.035 16.9902C10.035 16.5036 10.3737 16.111 10.7895 16.111Z" fill="#306998"/>
    </svg>
    