<svg width="19" height="19" viewBox="0 0 19 19" fill="none" xmlns="http://www.w3.org/2000/svg">
    <path d="M9.33996 16.4477C10.65 17.9146 11.9411 18.7823 12.9819 18.7823C13.323 18.7823 13.6459 18.6995 13.9145 18.514C14.8471 17.8938 15.1882 16.344 14.8652 14.1331C14.8115 13.7403 14.7397 13.3482 14.6497 12.9345C15.0082 12.8107 15.3312 12.6862 15.6542 12.5625C17.4664 11.7567 18.4709 10.6408 18.4709 9.42208C18.4709 8.18246 17.4664 7.06656 15.6542 6.28165C15.3312 6.13704 15.0082 6.01332 14.6497 5.90969C14.7397 5.49675 14.8115 5.10389 14.8652 4.71104C15.1701 2.45916 14.8297 0.888542 13.8964 0.26833C13.6271 0.0827485 13.3041 0 12.9637 0C11.9411 0 10.6311 0.867654 9.32183 2.33463C8.02997 0.867654 6.7381 0 5.69806 0C5.35696 0 5.03399 0.0827485 4.76544 0.26833C3.83281 0.888542 3.49171 2.43827 3.81468 4.64918C3.86839 5.04203 3.94024 5.43408 4.03022 5.84783C3.67168 5.97155 3.34871 6.09607 3.02575 6.21979C1.21352 7.02558 0.209045 8.14148 0.209045 9.36022C0.209045 10.5998 1.21352 11.7157 3.02575 12.5006C3.34871 12.6452 3.67168 12.769 4.03022 12.8726C3.94024 13.2855 3.86839 13.6784 3.81468 14.0713C3.50985 16.2822 3.85025 17.8528 4.76544 18.4521C5.03469 18.6385 5.35766 18.7204 5.69806 18.7204C6.7388 18.7614 8.03066 17.8938 9.33996 16.4477ZM8.33479 13.6583C8.65776 13.6792 8.99886 13.6792 9.33926 13.6792C9.67967 13.6792 10.0208 13.6792 10.3437 13.6583C10.0208 14.154 9.67967 14.6087 9.33926 15.0425C8.99816 14.6087 8.65776 14.154 8.33479 13.6583ZM6.11031 11.5302C6.28958 11.8812 6.45141 12.2122 6.64882 12.5424C6.09287 12.4597 5.5725 12.356 5.07026 12.2323C5.2321 11.6748 5.41137 11.0955 5.62621 10.5171C5.76991 10.8473 5.93104 11.2 6.11031 11.5302ZM5.06957 6.54998C5.5718 6.42626 6.09217 6.32262 6.64812 6.23988C6.46885 6.57087 6.28958 6.90106 6.10961 7.25214C5.92965 7.60322 5.76851 7.93421 5.62551 8.28529C5.39253 7.68597 5.21257 7.10833 5.06957 6.54998ZM6.0566 9.3811C6.28958 8.82356 6.5407 8.2652 6.82809 7.70766C7.09734 7.17019 7.40217 6.63353 7.707 6.09607C8.24551 6.0551 8.78332 6.03421 9.33996 6.03421C9.91405 6.03421 10.4526 6.0551 10.9729 6.09607C11.2959 6.63353 11.5826 7.17019 11.8518 7.70766C12.1392 8.2652 12.3903 8.82356 12.6233 9.3811C12.3903 9.93865 12.1392 10.497 11.8518 11.0546C11.5826 11.592 11.2778 12.1287 10.9729 12.6661C10.4344 12.7071 9.89661 12.728 9.33996 12.728C8.76588 12.728 8.22737 12.7071 7.707 12.6661C7.38404 12.1287 7.09734 11.592 6.82809 11.0546C6.5407 10.4962 6.28958 9.93865 6.0566 9.3811ZM13.0718 8.2652L12.5877 7.23205C12.4085 6.88098 12.2466 6.54998 12.0492 6.21979C12.6052 6.30254 13.1256 6.40618 13.6278 6.5299C13.4667 7.10833 13.2867 7.68597 13.0718 8.2652ZM13.0718 10.497C13.2874 11.0754 13.4667 11.6539 13.6278 12.2122C13.1256 12.3359 12.6052 12.4396 12.0492 12.5223C12.2285 12.1913 12.4078 11.8611 12.5877 11.5101C12.7496 11.2 12.9107 10.8481 13.0718 10.497ZM13.4841 17.6672C13.3404 17.7708 13.1611 17.8118 12.9637 17.8118C12.0848 17.8118 10.9904 16.9851 9.91405 15.7455C10.4344 15.1052 10.9367 14.3814 11.4389 13.5756C12.2822 13.4928 13.0893 13.3482 13.8433 13.1417C13.9333 13.5137 13.987 13.8857 14.0407 14.2576C14.2919 16.0138 14.0938 17.2743 13.4841 17.6672ZM14.4174 6.77734C16.4271 7.43852 17.6289 8.45079 17.6289 9.3811C17.6289 10.1869 16.8037 10.9927 15.3507 11.6338C15.0634 11.7575 14.7411 11.882 14.4181 11.9849C14.1851 11.1373 13.8977 10.2696 13.5392 9.3811C13.8977 8.49256 14.2026 7.62491 14.4174 6.77734ZM12.9819 0.950402C13.1793 0.950402 13.3404 0.991375 13.5022 1.09501C14.0945 1.48787 14.3093 2.72749 14.0582 4.50457C14.0045 4.85565 13.9326 5.22761 13.8608 5.62047C13.1074 5.43408 12.2997 5.28947 11.4563 5.18664C10.9722 4.38085 10.4519 3.6578 9.93148 3.0167C11.0078 1.79717 12.103 0.950402 12.9819 0.950402ZM10.3444 5.10389C10.0215 5.083 9.68037 5.083 9.33996 5.083C8.99956 5.083 8.65846 5.083 8.33549 5.10389C8.65846 4.60821 8.99956 4.15349 9.33996 3.71966C9.68106 4.15349 10.0215 4.62909 10.3444 5.10389ZM5.19513 1.09501C5.33882 0.991375 5.51809 0.950402 5.7155 0.950402C6.59441 0.950402 7.68886 1.77708 8.76518 3.0167C8.24481 3.657 7.74258 4.38004 7.24034 5.18664C6.397 5.26939 5.58994 5.414 4.83589 5.62047C4.7459 5.2485 4.69219 4.87653 4.63848 4.50457C4.38736 2.74837 4.58547 1.50875 5.19513 1.09501ZM4.2625 11.9849C2.25286 11.3237 1.05099 10.3114 1.05099 9.3811C1.05099 8.57531 1.87619 7.76952 3.32918 7.12922C3.61657 7.0055 3.93884 6.88098 4.26181 6.77814C4.49479 7.62571 4.78218 8.49336 5.14072 9.38191C4.78218 10.2704 4.47735 11.1582 4.2625 11.9849ZM4.63918 14.2576C4.69289 13.9066 4.76474 13.5346 4.83659 13.1417C5.58994 13.3281 6.3977 13.4727 7.24104 13.5756C7.72514 14.3814 8.24551 15.1044 8.76588 15.7455C7.68956 16.9642 6.59511 17.8118 5.7162 17.8118C5.51879 17.8118 5.35766 17.7708 5.19582 17.6672C4.58547 17.2743 4.38806 16.0138 4.63918 14.2576Z" fill="#61DBFB"/>
    </svg>
    