<svg width="16" height="15" viewBox="0 0 16 15" fill="none" xmlns="http://www.w3.org/2000/svg">
    <path d="M6.51998 0.305614C6.13686 0.386239 5.38061 0.658739 4.85623 0.920614C4.05936 1.30374 3.75686 1.52561 3.03061 2.25186C2.30436 2.97811 2.08248 3.28061 1.69936 4.07749C0.670608 6.18561 0.670608 8.20249 1.69936 10.3306C2.08248 11.1375 2.29436 11.43 3.03061 12.1562C3.76686 12.8925 4.04936 13.0944 4.85623 13.4875C6.08686 14.0725 6.68186 14.2137 7.98248 14.2137C9.28311 14.2137 9.87873 14.0725 11.1087 13.4875C11.9056 13.1044 12.1881 12.8925 12.9344 12.1562C13.6706 11.41 13.8825 11.1275 14.2656 10.3306C14.7494 9.31186 14.8906 8.83811 15.0019 7.82936L15.0725 7.20436H13.0756L12.9444 7.98124C12.3087 12.0256 7.37748 13.6494 4.45248 10.775C2.08248 8.45499 2.59686 4.52186 5.50123 2.81749C6.04561 2.49499 7.14498 2.16186 7.64936 2.16186H7.98186V0.144989L7.60873 0.154989C7.39686 0.154989 6.91311 0.225614 6.51936 0.306239L6.51998 0.305614ZM6.88311 3.02811C4.74498 3.60311 3.35311 5.73124 3.71623 7.86874C4.12998 10.2387 6.34873 11.8625 8.64811 11.4694C11.0081 11.0662 12.6419 8.83686 12.2487 6.55749C11.805 3.98561 9.34436 2.36186 6.88311 3.02749V3.02811Z" fill="black"/>
    </svg>
    