<svg width="25" height="25" viewBox="0 0 25 25" fill="none" xmlns="http://www.w3.org/2000/svg">
    <path d="M11.0335 3.25788C11.1738 3.10801 11.3434 2.98854 11.5317 2.90687C11.7201 2.82519 11.9232 2.78305 12.1285 2.78305C12.3338 2.78305 12.5369 2.82519 12.7252 2.90687C12.9136 2.98854 13.0832 3.10801 13.2235 3.25788L22.741 13.4129C23.641 14.3699 22.96 15.9374 21.646 15.9374H17.3785V20.4374C17.3785 20.8352 17.2204 21.2167 16.9391 21.498C16.6578 21.7793 16.2763 21.9374 15.8785 21.9374H8.37847C7.98065 21.9374 7.59912 21.7793 7.31781 21.498C7.03651 21.2167 6.87847 20.8352 6.87847 20.4374V15.9374H2.60947C1.29847 15.9374 0.617473 14.3699 1.51447 13.4114L11.0335 3.25788Z" fill="black"/>
    </svg>
    